<svg id="visual" viewBox="0 0 450 900" width="450" height="900" xmlns="http://www.w3.org/2000/svg" xmlns:xlink="http://www.w3.org/1999/xlink" version="1.1"><g stroke-width="1" stroke-linejoin="bevel"><path d="M245 476L225 506L229 526Z" fill="#15384f" stroke="#15384f"></path><path d="M229 526L285 541L245 476Z" fill="#297ea6" stroke="#297ea6"></path><path d="M285 541L286 474L245 476Z" fill="#112e42" stroke="#112e42"></path><path d="M285 541L296 472L286 474Z" fill="#00101c" stroke="#00101c"></path><path d="M241 402L216 418L245 476Z" fill="#1d4e6b" stroke="#1d4e6b"></path><path d="M229 526L277 557L285 541Z" fill="#00101c" stroke="#00101c"></path><path d="M150 443L211 525L225 506Z" fill="#00101c" stroke="#00101c"></path><path d="M225 506L211 525L229 526Z" fill="#277297" stroke="#277297"></path><path d="M229 526L228 608L277 557Z" fill="#15384f" stroke="#15384f"></path><path d="M285 541L344 467L296 472Z" fill="#0c2435" stroke="#0c2435"></path><path d="M241 402L245 476L286 474Z" fill="#205a7a" stroke="#205a7a"></path><path d="M337 566L344 467L285 541Z" fill="#112e42" stroke="#112e42"></path><path d="M277 557L337 566L285 541Z" fill="#0c2435" stroke="#0c2435"></path><path d="M344 467L340 456L296 472Z" fill="#205a7a" stroke="#205a7a"></path><path d="M211 525L193 584L229 526Z" fill="#0c2435" stroke="#0c2435"></path><path d="M277 557L322 595L337 566Z" fill="#112e42" stroke="#112e42"></path><path d="M241 402L286 474L296 472Z" fill="#00101c" stroke="#00101c"></path><path d="M245 476L181 417L225 506Z" fill="#00101c" stroke="#00101c"></path><path d="M211 525L166 588L193 584Z" fill="#0c2435" stroke="#0c2435"></path><path d="M193 584L228 608L229 526Z" fill="#1d4e6b" stroke="#1d4e6b"></path><path d="M320 620L322 595L277 557Z" fill="#277297" stroke="#277297"></path><path d="M261 379L241 402L296 472Z" fill="#19435d" stroke="#19435d"></path><path d="M322 595L372 563L337 566Z" fill="#1d4e6b" stroke="#1d4e6b"></path><path d="M337 566L386 497L344 467Z" fill="#1d4e6b" stroke="#1d4e6b"></path><path d="M210 365L181 417L216 418Z" fill="#081a28" stroke="#081a28"></path><path d="M216 418L181 417L245 476Z" fill="#112e42" stroke="#112e42"></path><path d="M130 534L166 588L211 525Z" fill="#0c2435" stroke="#0c2435"></path><path d="M193 584L166 610L228 608Z" fill="#081a28" stroke="#081a28"></path><path d="M372 563L386 497L337 566Z" fill="#15384f" stroke="#15384f"></path><path d="M344 467L378 460L340 456Z" fill="#00101c" stroke="#00101c"></path><path d="M228 608L320 620L277 557Z" fill="#19435d" stroke="#19435d"></path><path d="M322 595L320 620L372 563Z" fill="#277297" stroke="#277297"></path><path d="M386 497L378 460L344 467Z" fill="#205a7a" stroke="#205a7a"></path><path d="M322 370L261 379L296 472Z" fill="#19435d" stroke="#19435d"></path><path d="M181 417L150 443L225 506Z" fill="#00101c" stroke="#00101c"></path><path d="M322 370L296 472L340 456Z" fill="#297ea6" stroke="#297ea6"></path><path d="M241 402L210 365L216 418Z" fill="#19435d" stroke="#19435d"></path><path d="M150 443L130 534L211 525Z" fill="#15384f" stroke="#15384f"></path><path d="M127 611L166 610L166 588Z" fill="#112e42" stroke="#112e42"></path><path d="M166 588L166 610L193 584Z" fill="#0c2435" stroke="#0c2435"></path><path d="M273 685L315 668L320 620Z" fill="#15384f" stroke="#15384f"></path><path d="M378 460L322 370L340 456Z" fill="#0c2435" stroke="#0c2435"></path><path d="M277 323L210 365L261 379Z" fill="#277297" stroke="#277297"></path><path d="M261 379L210 365L241 402Z" fill="#297ea6" stroke="#297ea6"></path><path d="M181 417L169 368L150 443Z" fill="#205a7a" stroke="#205a7a"></path><path d="M450 547L425 538L450 621Z" fill="#081a28" stroke="#081a28"></path><path d="M372 563L425 538L386 497Z" fill="#246688" stroke="#246688"></path><path d="M386 497L450 483L378 460Z" fill="#00101c" stroke="#00101c"></path><path d="M265 684L320 620L228 608Z" fill="#246688" stroke="#246688"></path><path d="M424 657L450 621L372 563Z" fill="#00101c" stroke="#00101c"></path><path d="M210 365L169 368L181 417Z" fill="#112e42" stroke="#112e42"></path><path d="M172 669L188 661L166 610Z" fill="#0c2435" stroke="#0c2435"></path><path d="M166 610L188 661L228 608Z" fill="#0c2435" stroke="#0c2435"></path><path d="M103 591L127 611L166 588Z" fill="#081a28" stroke="#081a28"></path><path d="M208 277L169 362L210 365Z" fill="#19435d" stroke="#19435d"></path><path d="M210 365L169 362L169 368Z" fill="#15384f" stroke="#15384f"></path><path d="M72 406L81 440L82 388Z" fill="#277297" stroke="#277297"></path><path d="M230 686L265 684L228 608Z" fill="#277297" stroke="#277297"></path><path d="M265 684L273 685L320 620Z" fill="#246688" stroke="#246688"></path><path d="M130 534L103 591L166 588Z" fill="#0c2435" stroke="#0c2435"></path><path d="M85 557L103 591L130 534Z" fill="#205a7a" stroke="#205a7a"></path><path d="M85 557L130 534L69 484Z" fill="#0c2435" stroke="#0c2435"></path><path d="M188 661L230 686L228 608Z" fill="#19435d" stroke="#19435d"></path><path d="M313 742L287 690L285 756Z" fill="#297ea6" stroke="#297ea6"></path><path d="M328 326L307 333L322 370Z" fill="#205a7a" stroke="#205a7a"></path><path d="M322 370L307 333L261 379Z" fill="#00101c" stroke="#00101c"></path><path d="M328 326L322 370L356 313Z" fill="#1d4e6b" stroke="#1d4e6b"></path><path d="M287 690L273 685L285 756Z" fill="#112e42" stroke="#112e42"></path><path d="M273 685L287 690L315 668Z" fill="#15384f" stroke="#15384f"></path><path d="M69 484L130 534L150 443Z" fill="#00101c" stroke="#00101c"></path><path d="M188 661L172 669L230 686Z" fill="#277297" stroke="#277297"></path><path d="M127 611L172 669L166 610Z" fill="#297ea6" stroke="#297ea6"></path><path d="M86 630L172 669L127 611Z" fill="#205a7a" stroke="#205a7a"></path><path d="M307 333L277 323L261 379Z" fill="#0c2435" stroke="#0c2435"></path><path d="M425 538L450 505L386 497Z" fill="#19435d" stroke="#19435d"></path><path d="M450 505L450 483L386 497Z" fill="#19435d" stroke="#19435d"></path><path d="M450 621L425 538L372 563Z" fill="#00101c" stroke="#00101c"></path><path d="M425 538L450 547L450 505Z" fill="#081a28" stroke="#081a28"></path><path d="M81 440L150 443L82 388Z" fill="#0c2435" stroke="#0c2435"></path><path d="M413 353L322 370L378 460Z" fill="#112e42" stroke="#112e42"></path><path d="M307 333L311 287L277 323Z" fill="#112e42" stroke="#112e42"></path><path d="M81 440L69 484L150 443Z" fill="#00101c" stroke="#00101c"></path><path d="M38 508L71 577L85 557Z" fill="#297ea6" stroke="#297ea6"></path><path d="M85 557L71 577L103 591Z" fill="#246688" stroke="#246688"></path><path d="M103 591L86 630L127 611Z" fill="#081a28" stroke="#081a28"></path><path d="M287 690L350 701L315 668Z" fill="#1d4e6b" stroke="#1d4e6b"></path><path d="M315 668L350 701L320 620Z" fill="#15384f" stroke="#15384f"></path><path d="M313 742L350 701L287 690Z" fill="#246688" stroke="#246688"></path><path d="M450 483L450 408L378 460Z" fill="#1d4e6b" stroke="#1d4e6b"></path><path d="M71 577L86 630L103 591Z" fill="#112e42" stroke="#112e42"></path><path d="M450 408L437 385L378 460Z" fill="#297ea6" stroke="#297ea6"></path><path d="M82 388L150 443L169 368Z" fill="#0c2435" stroke="#0c2435"></path><path d="M37 468L38 508L69 484Z" fill="#19435d" stroke="#19435d"></path><path d="M114 337L82 388L169 368Z" fill="#297ea6" stroke="#297ea6"></path><path d="M114 337L169 368L169 362Z" fill="#277297" stroke="#277297"></path><path d="M437 385L413 353L378 460Z" fill="#277297" stroke="#277297"></path><path d="M413 353L356 313L322 370Z" fill="#112e42" stroke="#112e42"></path><path d="M328 326L311 287L307 333Z" fill="#15384f" stroke="#15384f"></path><path d="M424 657L372 563L320 620Z" fill="#277297" stroke="#277297"></path><path d="M350 701L424 657L320 620Z" fill="#15384f" stroke="#15384f"></path><path d="M350 701L423 663L424 657Z" fill="#15384f" stroke="#15384f"></path><path d="M424 657L450 641L450 621Z" fill="#1d4e6b" stroke="#1d4e6b"></path><path d="M37 468L69 484L81 440Z" fill="#112e42" stroke="#112e42"></path><path d="M69 484L38 508L85 557Z" fill="#0c2435" stroke="#0c2435"></path><path d="M24 626L60 662L86 630Z" fill="#00101c" stroke="#00101c"></path><path d="M208 277L210 365L277 323Z" fill="#277297" stroke="#277297"></path><path d="M110 317L114 337L142 285Z" fill="#19435d" stroke="#19435d"></path><path d="M356 313L311 287L328 326Z" fill="#1d4e6b" stroke="#1d4e6b"></path><path d="M72 406L37 468L81 440Z" fill="#112e42" stroke="#112e42"></path><path d="M0 488L37 468L0 403Z" fill="#081a28" stroke="#081a28"></path><path d="M450 662L450 641L424 657Z" fill="#205a7a" stroke="#205a7a"></path><path d="M172 669L165 721L230 686Z" fill="#00101c" stroke="#00101c"></path><path d="M285 756L273 685L265 684Z" fill="#0c2435" stroke="#0c2435"></path><path d="M138 731L165 721L107 713Z" fill="#112e42" stroke="#112e42"></path><path d="M114 337L77 363L82 388Z" fill="#205a7a" stroke="#205a7a"></path><path d="M82 388L77 363L72 406Z" fill="#277297" stroke="#277297"></path><path d="M283 264L208 277L277 323Z" fill="#19435d" stroke="#19435d"></path><path d="M285 756L265 684L230 686Z" fill="#1d4e6b" stroke="#1d4e6b"></path><path d="M450 712L450 662L423 663Z" fill="#277297" stroke="#277297"></path><path d="M450 712L423 663L350 701Z" fill="#205a7a" stroke="#205a7a"></path><path d="M423 663L450 662L424 657Z" fill="#277297" stroke="#277297"></path><path d="M142 285L114 337L169 362Z" fill="#1d4e6b" stroke="#1d4e6b"></path><path d="M114 337L110 317L77 363Z" fill="#1d4e6b" stroke="#1d4e6b"></path><path d="M314 193L283 264L311 287Z" fill="#1d4e6b" stroke="#1d4e6b"></path><path d="M311 287L283 264L277 323Z" fill="#297ea6" stroke="#297ea6"></path><path d="M424 300L368 286L356 313Z" fill="#081a28" stroke="#081a28"></path><path d="M356 313L368 286L311 287Z" fill="#19435d" stroke="#19435d"></path><path d="M424 300L356 313L413 353Z" fill="#19435d" stroke="#19435d"></path><path d="M215 766L285 756L230 686Z" fill="#19435d" stroke="#19435d"></path><path d="M24 626L86 630L71 577Z" fill="#0c2435" stroke="#0c2435"></path><path d="M107 713L165 721L172 669Z" fill="#19435d" stroke="#19435d"></path><path d="M185 230L142 285L208 277Z" fill="#00101c" stroke="#00101c"></path><path d="M208 277L142 285L169 362Z" fill="#15384f" stroke="#15384f"></path><path d="M107 713L172 669L86 630Z" fill="#1d4e6b" stroke="#1d4e6b"></path><path d="M189 761L215 766L230 686Z" fill="#00101c" stroke="#00101c"></path><path d="M60 662L107 713L86 630Z" fill="#1d4e6b" stroke="#1d4e6b"></path><path d="M189 761L230 686L165 721Z" fill="#297ea6" stroke="#297ea6"></path><path d="M107 713L118 727L138 731Z" fill="#0c2435" stroke="#0c2435"></path><path d="M138 731L189 761L165 721Z" fill="#15384f" stroke="#15384f"></path><path d="M23 773L118 727L107 713Z" fill="#081a28" stroke="#081a28"></path><path d="M0 488L0 509L38 508Z" fill="#1d4e6b" stroke="#1d4e6b"></path><path d="M38 508L0 577L71 577Z" fill="#246688" stroke="#246688"></path><path d="M0 488L38 508L37 468Z" fill="#1d4e6b" stroke="#1d4e6b"></path><path d="M169 800L189 761L138 731Z" fill="#00101c" stroke="#00101c"></path><path d="M0 403L37 468L72 406Z" fill="#1d4e6b" stroke="#1d4e6b"></path><path d="M450 317L413 353L437 385Z" fill="#277297" stroke="#277297"></path><path d="M450 317L424 300L413 353Z" fill="#19435d" stroke="#19435d"></path><path d="M243 205L233 217L283 264Z" fill="#205a7a" stroke="#205a7a"></path><path d="M0 585L24 626L71 577Z" fill="#0c2435" stroke="#0c2435"></path><path d="M170 836L169 800L79 838Z" fill="#297ea6" stroke="#297ea6"></path><path d="M450 408L450 317L437 385Z" fill="#112e42" stroke="#112e42"></path><path d="M0 509L0 577L38 508Z" fill="#246688" stroke="#246688"></path><path d="M0 577L0 585L71 577Z" fill="#205a7a" stroke="#205a7a"></path><path d="M405 784L450 712L350 701Z" fill="#205a7a" stroke="#205a7a"></path><path d="M356 778L350 701L313 742Z" fill="#0c2435" stroke="#0c2435"></path><path d="M450 317L433 288L424 300Z" fill="#19435d" stroke="#19435d"></path><path d="M424 300L433 288L368 286Z" fill="#00101c" stroke="#00101c"></path><path d="M0 351L0 403L77 363Z" fill="#0c2435" stroke="#0c2435"></path><path d="M77 363L0 403L72 406Z" fill="#0c2435" stroke="#0c2435"></path><path d="M54 313L77 363L110 317Z" fill="#19435d" stroke="#19435d"></path><path d="M356 778L313 742L325 817Z" fill="#277297" stroke="#277297"></path><path d="M346 806L356 778L325 817Z" fill="#00101c" stroke="#00101c"></path><path d="M85 272L54 313L110 317Z" fill="#205a7a" stroke="#205a7a"></path><path d="M201 218L185 230L208 277Z" fill="#277297" stroke="#277297"></path><path d="M142 285L85 272L110 317Z" fill="#1d4e6b" stroke="#1d4e6b"></path><path d="M233 217L208 277L283 264Z" fill="#15384f" stroke="#15384f"></path><path d="M385 231L311 287L368 286Z" fill="#081a28" stroke="#081a28"></path><path d="M87 265L85 272L142 285Z" fill="#1d4e6b" stroke="#1d4e6b"></path><path d="M233 217L201 218L208 277Z" fill="#112e42" stroke="#112e42"></path><path d="M130 232L87 265L142 285Z" fill="#297ea6" stroke="#297ea6"></path><path d="M130 232L142 285L185 230Z" fill="#1d4e6b" stroke="#1d4e6b"></path><path d="M29 237L0 290L54 313Z" fill="#297ea6" stroke="#297ea6"></path><path d="M450 317L450 272L433 288Z" fill="#277297" stroke="#277297"></path><path d="M433 288L385 231L368 286Z" fill="#112e42" stroke="#112e42"></path><path d="M450 247L385 231L433 288Z" fill="#246688" stroke="#246688"></path><path d="M314 193L243 205L283 264Z" fill="#112e42" stroke="#112e42"></path><path d="M233 217L243 205L201 218Z" fill="#1d4e6b" stroke="#1d4e6b"></path><path d="M189 761L169 800L215 766Z" fill="#0c2435" stroke="#0c2435"></path><path d="M325 817L313 742L285 756Z" fill="#0c2435" stroke="#0c2435"></path><path d="M118 727L169 800L138 731Z" fill="#297ea6" stroke="#297ea6"></path><path d="M13 716L107 713L60 662Z" fill="#0c2435" stroke="#0c2435"></path><path d="M0 290L0 351L54 313Z" fill="#112e42" stroke="#112e42"></path><path d="M54 313L0 351L77 363Z" fill="#00101c" stroke="#00101c"></path><path d="M201 218L184 213L185 230Z" fill="#112e42" stroke="#112e42"></path><path d="M243 205L184 213L201 218Z" fill="#297ea6" stroke="#297ea6"></path><path d="M150 204L130 232L185 230Z" fill="#19435d" stroke="#19435d"></path><path d="M239 821L285 756L215 766Z" fill="#112e42" stroke="#112e42"></path><path d="M356 778L405 784L350 701Z" fill="#15384f" stroke="#15384f"></path><path d="M0 585L0 673L24 626Z" fill="#15384f" stroke="#15384f"></path><path d="M24 626L0 673L60 662Z" fill="#246688" stroke="#246688"></path><path d="M346 806L405 784L356 778Z" fill="#205a7a" stroke="#205a7a"></path><path d="M169 800L239 821L215 766Z" fill="#0c2435" stroke="#0c2435"></path><path d="M239 821L325 817L285 756Z" fill="#19435d" stroke="#19435d"></path><path d="M346 806L409 790L405 784Z" fill="#297ea6" stroke="#297ea6"></path><path d="M405 784L450 763L450 712Z" fill="#19435d" stroke="#19435d"></path><path d="M391 852L409 790L346 806Z" fill="#246688" stroke="#246688"></path><path d="M405 784L409 790L450 763Z" fill="#205a7a" stroke="#205a7a"></path><path d="M385 231L314 193L311 287Z" fill="#0c2435" stroke="#0c2435"></path><path d="M127 158L150 204L146 120Z" fill="#15384f" stroke="#15384f"></path><path d="M450 272L450 247L433 288Z" fill="#205a7a" stroke="#205a7a"></path><path d="M361 118L337 118L314 193Z" fill="#081a28" stroke="#081a28"></path><path d="M0 673L13 716L60 662Z" fill="#15384f" stroke="#15384f"></path><path d="M197 110L184 213L243 205Z" fill="#1d4e6b" stroke="#1d4e6b"></path><path d="M184 213L150 204L185 230Z" fill="#15384f" stroke="#15384f"></path><path d="M130 232L53 236L87 265Z" fill="#277297" stroke="#277297"></path><path d="M0 673L0 711L13 716Z" fill="#19435d" stroke="#19435d"></path><path d="M79 838L169 800L118 727Z" fill="#205a7a" stroke="#205a7a"></path><path d="M314 193L268 176L243 205Z" fill="#081a28" stroke="#081a28"></path><path d="M23 773L107 713L13 716Z" fill="#1d4e6b" stroke="#1d4e6b"></path><path d="M169 800L170 836L239 821Z" fill="#277297" stroke="#277297"></path><path d="M239 821L316 845L325 817Z" fill="#277297" stroke="#277297"></path><path d="M0 711L0 726L13 716Z" fill="#297ea6" stroke="#297ea6"></path><path d="M246 900L316 845L239 821Z" fill="#246688" stroke="#246688"></path><path d="M325 817L337 855L346 806Z" fill="#112e42" stroke="#112e42"></path><path d="M53 236L54 313L85 272Z" fill="#19435d" stroke="#19435d"></path><path d="M53 236L85 272L87 265Z" fill="#277297" stroke="#277297"></path><path d="M112 183L53 236L130 232Z" fill="#19435d" stroke="#19435d"></path><path d="M170 836L216 857L239 821Z" fill="#246688" stroke="#246688"></path><path d="M450 247L450 210L385 231Z" fill="#205a7a" stroke="#205a7a"></path><path d="M314 193L297 140L268 176Z" fill="#246688" stroke="#246688"></path><path d="M332 900L337 855L316 845Z" fill="#00101c" stroke="#00101c"></path><path d="M316 845L337 855L325 817Z" fill="#19435d" stroke="#19435d"></path><path d="M409 790L450 860L450 763Z" fill="#1d4e6b" stroke="#1d4e6b"></path><path d="M0 726L23 773L13 716Z" fill="#15384f" stroke="#15384f"></path><path d="M170 836L177 889L216 857Z" fill="#19435d" stroke="#19435d"></path><path d="M0 176L29 237L53 236Z" fill="#246688" stroke="#246688"></path><path d="M53 236L29 237L54 313Z" fill="#246688" stroke="#246688"></path><path d="M127 158L112 183L150 204Z" fill="#19435d" stroke="#19435d"></path><path d="M150 204L112 183L130 232Z" fill="#00101c" stroke="#00101c"></path><path d="M337 855L391 852L346 806Z" fill="#112e42" stroke="#112e42"></path><path d="M450 210L437 185L385 231Z" fill="#205a7a" stroke="#205a7a"></path><path d="M337 118L297 140L314 193Z" fill="#205a7a" stroke="#205a7a"></path><path d="M146 120L150 204L184 213Z" fill="#081a28" stroke="#081a28"></path><path d="M0 176L0 244L29 237Z" fill="#15384f" stroke="#15384f"></path><path d="M29 237L0 244L0 290Z" fill="#112e42" stroke="#112e42"></path><path d="M0 806L35 808L23 773Z" fill="#112e42" stroke="#112e42"></path><path d="M23 773L35 808L118 727Z" fill="#1d4e6b" stroke="#1d4e6b"></path><path d="M197 110L243 205L268 176Z" fill="#297ea6" stroke="#297ea6"></path><path d="M112 183L48 147L53 236Z" fill="#15384f" stroke="#15384f"></path><path d="M35 808L79 838L118 727Z" fill="#246688" stroke="#246688"></path><path d="M138 900L177 889L170 836Z" fill="#112e42" stroke="#112e42"></path><path d="M216 857L246 900L239 821Z" fill="#205a7a" stroke="#205a7a"></path><path d="M337 855L363 900L391 852Z" fill="#205a7a" stroke="#205a7a"></path><path d="M228 900L246 900L216 857Z" fill="#081a28" stroke="#081a28"></path><path d="M177 889L228 900L216 857Z" fill="#297ea6" stroke="#297ea6"></path><path d="M0 726L0 806L23 773Z" fill="#277297" stroke="#277297"></path><path d="M80 900L91 880L27 871Z" fill="#00101c" stroke="#00101c"></path><path d="M138 900L177 900L177 889Z" fill="#112e42" stroke="#112e42"></path><path d="M246 900L332 900L316 845Z" fill="#00101c" stroke="#00101c"></path><path d="M361 118L314 193L385 231Z" fill="#246688" stroke="#246688"></path><path d="M237 100L197 110L268 176Z" fill="#081a28" stroke="#081a28"></path><path d="M388 900L450 860L391 852Z" fill="#205a7a" stroke="#205a7a"></path><path d="M391 852L450 860L409 790Z" fill="#19435d" stroke="#19435d"></path><path d="M91 880L170 836L79 838Z" fill="#00101c" stroke="#00101c"></path><path d="M177 889L177 900L228 900Z" fill="#19435d" stroke="#19435d"></path><path d="M437 185L361 118L385 231Z" fill="#0c2435" stroke="#0c2435"></path><path d="M332 900L363 900L337 855Z" fill="#19435d" stroke="#19435d"></path><path d="M278 103L297 140L337 118Z" fill="#246688" stroke="#246688"></path><path d="M278 103L268 176L297 140Z" fill="#00101c" stroke="#00101c"></path><path d="M65 136L48 147L112 183Z" fill="#15384f" stroke="#15384f"></path><path d="M197 110L146 120L184 213Z" fill="#205a7a" stroke="#205a7a"></path><path d="M235 63L319 30L231 42Z" fill="#0c2435" stroke="#0c2435"></path><path d="M91 880L79 838L27 871Z" fill="#246688" stroke="#246688"></path><path d="M278 103L237 100L268 176Z" fill="#19435d" stroke="#19435d"></path><path d="M197 110L130 19L146 120Z" fill="#15384f" stroke="#15384f"></path><path d="M91 880L138 900L170 836Z" fill="#0c2435" stroke="#0c2435"></path><path d="M363 900L388 900L391 852Z" fill="#19435d" stroke="#19435d"></path><path d="M65 136L112 183L127 158Z" fill="#081a28" stroke="#081a28"></path><path d="M235 63L249 88L319 30Z" fill="#19435d" stroke="#19435d"></path><path d="M278 103L249 88L237 100Z" fill="#0c2435" stroke="#0c2435"></path><path d="M237 100L235 63L197 110Z" fill="#297ea6" stroke="#297ea6"></path><path d="M146 120L65 136L127 158Z" fill="#112e42" stroke="#112e42"></path><path d="M87 71L65 136L146 120Z" fill="#081a28" stroke="#081a28"></path><path d="M48 147L0 176L53 236Z" fill="#112e42" stroke="#112e42"></path><path d="M0 143L0 176L48 147Z" fill="#15384f" stroke="#15384f"></path><path d="M437 185L450 123L361 118Z" fill="#112e42" stroke="#112e42"></path><path d="M319 30L278 103L337 118Z" fill="#297ea6" stroke="#297ea6"></path><path d="M450 210L450 123L437 185Z" fill="#081a28" stroke="#081a28"></path><path d="M27 871L79 838L35 808Z" fill="#19435d" stroke="#19435d"></path><path d="M91 880L80 900L138 900Z" fill="#297ea6" stroke="#297ea6"></path><path d="M0 806L27 871L35 808Z" fill="#205a7a" stroke="#205a7a"></path><path d="M388 900L450 900L450 860Z" fill="#0c2435" stroke="#0c2435"></path><path d="M367 67L337 118L361 118Z" fill="#205a7a" stroke="#205a7a"></path><path d="M249 88L235 63L237 100Z" fill="#246688" stroke="#246688"></path><path d="M450 123L377 76L361 118Z" fill="#205a7a" stroke="#205a7a"></path><path d="M0 104L48 147L65 136Z" fill="#15384f" stroke="#15384f"></path><path d="M0 104L0 143L48 147Z" fill="#081a28" stroke="#081a28"></path><path d="M385 67L367 67L377 76Z" fill="#277297" stroke="#277297"></path><path d="M377 76L367 67L361 118Z" fill="#297ea6" stroke="#297ea6"></path><path d="M450 78L385 67L377 76Z" fill="#277297" stroke="#277297"></path><path d="M319 30L249 88L278 103Z" fill="#081a28" stroke="#081a28"></path><path d="M0 806L0 888L27 871Z" fill="#081a28" stroke="#081a28"></path><path d="M27 871L0 900L80 900Z" fill="#297ea6" stroke="#297ea6"></path><path d="M319 30L337 118L367 67Z" fill="#00101c" stroke="#00101c"></path><path d="M235 63L231 42L197 110Z" fill="#297ea6" stroke="#297ea6"></path><path d="M450 123L450 78L377 76Z" fill="#1d4e6b" stroke="#1d4e6b"></path><path d="M0 888L0 900L27 871Z" fill="#246688" stroke="#246688"></path><path d="M130 19L87 71L146 120Z" fill="#081a28" stroke="#081a28"></path><path d="M79 41L83 69L87 71Z" fill="#246688" stroke="#246688"></path><path d="M87 71L83 69L65 136Z" fill="#19435d" stroke="#19435d"></path><path d="M83 69L0 104L65 136Z" fill="#15384f" stroke="#15384f"></path><path d="M362 13L319 30L367 67Z" fill="#1d4e6b" stroke="#1d4e6b"></path><path d="M362 13L367 67L385 67Z" fill="#277297" stroke="#277297"></path><path d="M130 19L79 41L87 71Z" fill="#19435d" stroke="#19435d"></path><path d="M83 69L0 26L0 104Z" fill="#15384f" stroke="#15384f"></path><path d="M130 19L197 110L231 42Z" fill="#19435d" stroke="#19435d"></path><path d="M394 0L362 13L385 67Z" fill="#081a28" stroke="#081a28"></path><path d="M198 0L130 19L231 42Z" fill="#246688" stroke="#246688"></path><path d="M243 0L231 42L319 30Z" fill="#246688" stroke="#246688"></path><path d="M324 0L243 0L319 30Z" fill="#1d4e6b" stroke="#1d4e6b"></path><path d="M450 78L450 32L385 67Z" fill="#277297" stroke="#277297"></path><path d="M329 0L324 0L319 30Z" fill="#19435d" stroke="#19435d"></path><path d="M329 0L319 30L362 13Z" fill="#1d4e6b" stroke="#1d4e6b"></path><path d="M243 0L198 0L231 42Z" fill="#1d4e6b" stroke="#1d4e6b"></path><path d="M394 0L329 0L362 13Z" fill="#1d4e6b" stroke="#1d4e6b"></path><path d="M450 32L394 0L385 67Z" fill="#081a28" stroke="#081a28"></path><path d="M198 0L118 0L130 19Z" fill="#1d4e6b" stroke="#1d4e6b"></path><path d="M130 19L118 0L79 41Z" fill="#0c2435" stroke="#0c2435"></path><path d="M79 41L0 26L83 69Z" fill="#00101c" stroke="#00101c"></path><path d="M118 0L80 0L79 41Z" fill="#0c2435" stroke="#0c2435"></path><path d="M80 0L76 0L79 41Z" fill="#1d4e6b" stroke="#1d4e6b"></path><path d="M450 32L450 0L394 0Z" fill="#1d4e6b" stroke="#1d4e6b"></path><path d="M76 0L0 26L79 41Z" fill="#277297" stroke="#277297"></path><path d="M76 0L0 0L0 26Z" fill="#081a28" stroke="#081a28"></path></g></svg>